<svg id="Page-1" xmlns="http://www.w3.org/2000/svg" width="23" height="26" viewBox="0 0 23 26">
  <g id="WEBNOTIF-Normal" transform="translate(-31 -712)">
    <g id="Group-2" transform="translate(20 703)">
      <g id="Group" transform="translate(11 9)">
        <path id="Combined-Shape" d="M21.6,23.357H1.4A1.386,1.386,0,0,1,.13,22.546a1.375,1.375,0,0,1,.209-1.489L2.37,18.7A8.8,8.8,0,0,0,4.5,12.958V8.964a7,7,0,0,1,13.992,0v3.994A8.8,8.8,0,0,0,20.629,18.7l2.031,2.359a1.392,1.392,0,0,1-1.062,2.3Z" fill="#1468e5" fill-rule="evenodd"/>
        <path id="Combined-Shape-2" data-name="Combined-Shape" d="M8.7,23.214H1.4A1.386,1.386,0,0,1,.13,22.4a1.375,1.375,0,0,1,.209-1.489L2.37,18.556A8.8,8.8,0,0,0,4.5,12.815V8.821A6.982,6.982,0,0,1,9.635,2.108V1.857a1.866,1.866,0,0,1,3.731,0v.251A6.982,6.982,0,0,1,18.5,8.821v3.994a8.8,8.8,0,0,0,2.133,5.741l2.031,2.359a1.392,1.392,0,0,1-1.062,2.3H14.3a2.8,2.8,0,0,1-5.6,0ZM10.153,2.936A6.052,6.052,0,0,0,5.437,8.821v3.994A9.729,9.729,0,0,1,3.079,19.16L1.048,21.519a.464.464,0,0,0,.354.767H21.6a.464.464,0,0,0,.354-.767L19.921,19.16a9.729,9.729,0,0,1-2.358-6.345V8.821a6.052,6.052,0,0,0-4.716-5.886l-.05-.008a6.018,6.018,0,0,0-2.594,0ZM11.5,1.857a6.938,6.938,0,0,1,.933.064V1.857a.933.933,0,0,0-1.866,0v.064A6.938,6.938,0,0,1,11.5,1.857ZM9.634,23.214a1.866,1.866,0,0,0,3.731,0ZM6.836,9.286a.465.465,0,0,1-.466-.464A5.125,5.125,0,0,1,11.5,3.714a.464.464,0,1,1,0,.929A4.193,4.193,0,0,0,7.3,8.821.465.465,0,0,1,6.836,9.286Z" fill="#fff" fill-rule="evenodd"/>
      </g>
    </g>
  </g>
</svg>
